<?xml version="1.0" encoding="iso-8859-1"?>
<!-- Generator: Adobe Illustrator 19.0.0, SVG Export Plug-In . SVG Version: 6.00 Build 0)  -->
<svg version="1.1" id="Layer_1" xmlns="http://www.w3.org/2000/svg" xmlns:xlink="http://www.w3.org/1999/xlink" x="0px" y="0px"
	 viewBox="0 0 512 512" style="enable-background:new 0 0 512 512;" xml:space="preserve">
<path style="fill:#FFA733;" d="M256,512L256,512c-6.679,0-12.712-3.978-15.342-10.12l-42.827-105.456L96.913,436.783
	c-6.212,2.489-13.293,1.022-18.006-3.695c-4.723-4.717-6.18-11.804-3.695-18.011l40.37-100.902L10.12,271.348
	C3.978,268.718,0,262.674,0,256s3.978-12.718,10.12-15.348l105.462-42.827L75.212,96.924c-2.483-6.206-1.027-13.293,3.695-18.011
	c4.712-4.728,11.794-6.185,18.006-3.695l100.919,40.359L240.658,10.12C243.288,3.978,249.321,0,256,0
	c6.679,0,12.712,3.978,15.342,10.12l42.831,105.456l100.913-40.359c6.212-2.489,13.293-1.033,18.006,3.695
	c4.723,4.717,6.18,11.804,3.695,18l-40.365,100.924l105.456,42.815C508.022,243.282,512,249.326,512,256s-3.978,12.718-10.12,15.348
	l-105.456,42.815l40.365,100.924c2.483,6.195,1.027,13.283-3.695,18c-4.712,4.717-11.794,6.185-18.006,3.695l-100.913-40.359
	L271.343,501.88C268.712,508.022,262.679,512,256,512z"/>
<path style="fill:#FF9811;" d="M271.342,501.88l42.831-105.456l100.913,40.359c6.212,2.489,13.293,1.022,18.006-3.695
	c4.723-4.717,6.18-11.804,3.695-18l-40.365-100.924l105.456-42.815C508.022,268.718,512,262.674,512,256s-3.978-12.718-10.12-15.348
	l-105.456-42.815l40.365-100.924c2.483-6.195,1.027-13.283-3.695-18c-4.712-4.728-11.794-6.185-18.006-3.695l-100.913,40.359
	L271.342,10.12C268.712,3.978,262.679,0,256,0v512C262.679,512,268.712,508.022,271.342,501.88z"/>
<path style="fill:#FFDA44;" d="M256,406.261c-82.853,0-150.261-67.403-150.261-150.261S173.147,105.739,256,105.739
	S406.261,173.142,406.261,256S338.853,406.261,256,406.261z"/>
<path style="fill:#FFB655;" d="M406.261,256c0-82.858-67.408-150.261-150.261-150.261v300.522
	C338.853,406.261,406.261,338.858,406.261,256z"/>
<g>
</g>
<g>
</g>
<g>
</g>
<g>
</g>
<g>
</g>
<g>
</g>
<g>
</g>
<g>
</g>
<g>
</g>
<g>
</g>
<g>
</g>
<g>
</g>
<g>
</g>
<g>
</g>
<g>
</g>
</svg>
